**ABCDEFGHIJKLMNOPQRSTUVWXYZabcdefghijklmnopqrstuvwxyz**************************
**PARASOLID !"#$%&'()*+,-./:;<=>?@[\]^_`{|}~0123456789**************************
**PART1;
MC=AMD64;
MC_MODEL=AMD64 Family 21 Model 19 Stepping 1, AuthenticAMD;
MC_ID=unknown;
OS=Windows_NT;
OS_RELEASE=unknown;
FRU=Parasolid Version 29.0, build 201,  4-17-2017;
APPL=SOLIDWORKS 2017-2017317;
SITE=;
USER=unknown;
FORMAT=text;
GUISE=transmit;
KEY=caster-2inch;
FILE=caster-2inch.x_t;
DATE=Fri Mar 25 14:55:01 2022;
**PART2;
SCH=SCH_2900201_28101;
USFLD_SIZE=0;
**PART3;
**END_OF_HEADER*****************************************************************
T51 : TRANSMIT FILE created by modeller version 290020123 SCH_2900201_28101_1300
6203 0 10 19 CCCCCCCI4 mesh1006 0 I8 polyline1008 0 CCCCCCCCCCZ1 9 2 3 0 0 0 0 0
 0 0 1e3 1e-8 0 0 0 1 0 1 4 81 255 1 2 9 5 1 0 0 0 0 0 70 11 CI9 list_type0 0 1
 uI10 notransmit0 0 1 lCCCDCCDI12 finger_index0 0 1 dI12 finger_block1012 0 CZ3
 0 4 T1 0 0 1 20 1 6 6 11 255 4 7 0 1 7 8 1 9 0 0 0 12 33 CCCCCCI4 mesh1006 0 I8
 polyline1008 0 CCCCCCCDI5 owner1040 0 CCCCCCI13 boundary_mesh1006 0 I17 boundar
y_polyline1008 0 CCCA16 index_map_offset0 0 1 dA9 index_map82 0 A17 node_id_inde
x_map82 0 A20 schema_embedding_map82 0 A5 child12 0 A14 lowest_node_id0 0 1 dZ7
 387 10 11 0 0 0 0 0 0 1e3 1e-8 4 12 0 1 0 1 1 13 14 15 0 0 0 16 17 0 0 0 0 0 0
 0 100 255 8 8 4 0 0 -.2349224044167035 -.818050128037061 -.52498138245239 .9611
52567529158 -.2760176478635165 27755575615629e-30 -.144904126356646 -.5045872036
49122 .851113710427918 -.0370222742085584 -616297582203916e-47 -.010499627649047
84 1 3 ?11 9 5 0 1 12 18 1 19 4 0 0 12 12 705 20 21 0 0 0 0 0 0 1e3 1e-8 9 22 7
 1 0 1 1 23 24 25 0 0 0 26 27 0 0 0 0 0 0 0 100 18 6 9 0 0 -.813899976005044 .24
8920423303041 .524981382452391 .2924643561174575 .956276424681065 22204460492503
15e-31 -.502027319435695 .1535383419925915 -.851113710427917 -.03702227420855835
 -975781955236954e-32 -.01049962764904784 1 3 ?11 19 3 0 1 22 28 1 29 9 0 0 12 2
2 2586 30 31 0 0 0 0 0 0 1e3 1e-8 19 32 12 1 0 1 1 33 34 35 36 0 0 37 38 39 0 0
 0 0 0 0 100 28 4 19 0 0 -.851113710427917 0 .524981382452391 0 1 0 -.5249813824
52391 0 -.851113710427917 -.0370222742085584 0 -.01049962764904782 1 3 ?11 29 1
 0 1 32 40 1 0 19 0 0 12 32 605 41 42 0 0 0 0 0 0 1e3 1e-8 29 43 22 1 0 1 1 44 4
5 46 47 0 0 48 49 50 0 0 0 0 0 0 100 40 2 29 0 0 1 0 0 0 1 0 0 0 1 0 0 0 1 0 ?81
 1 41 605 5 32 0 0 0 0 51 70 42 0 4 T32 0 0 3 20 1 52 52 13 255 44 29 0 32 0 53
 0 0 54 0 52 255 45 80 0 55 56 0 0 +-.02 .07 2449293598294705e-33 0 -1 0 .005 .7
07106781186546 .707106781186549 0 0 -1 31 255 46 283 0 57 58 0 0 +-.02 .0335 244
9293598294705e-33 0 1 0 0 0 1 .005 29 255 47 198 0 59 60 0 -.0115 .04 -.00490747
728811182 19 8 CCCCCCCA5 owner12 0 Z48 7 0 32 54 0 61 V0 16 255 49 236 0 ?62 0 6
3 58 0 0 32 18 255 50 123 0 64 0 65 60 ?32 17 255 64 0 66 67 68 50 69 70 0 71 +1
8 65 122 0 68 50 72 73 ?32 29 60 199 0 50 73 47 -.0115 .045 -.00490747728811182
 29 73 200 0 65 74 60 -.0115 .045 .00490747728811182 29 74 201 0 72 75 73 -.02 .
045 .00981495457622364 18 72 121 0 76 65 77 74 ?32 29 75 202 0 77 78 74 -.0285 .
045 .00490747728811182 18 77 120 0 79 72 80 75 ?32 29 78 203 0 80 81 75 -.0285 .
045 -.00490747728811182 18 80 119 0 82 77 83 78 ?32 29 81 204 0 83 84 78 -.02 .0
45 -.00981495457622364 18 83 118 0 85 80 59 81 ?32 29 84 205 0 86 87 81 -.02 .04
 -.00981495457622364 18 86 129 0 88 59 89 84 ?32 29 87 206 0 89 90 84 -.0285 .04
 -.00490747728811182 18 89 128 0 91 86 92 87 ?32 29 90 207 0 92 93 87 -.0285 .04
 .00490747728811182 18 92 127 0 94 89 95 90 ?32 29 93 208 0 95 96 90 -.02 .04 .0
0981495457622364 18 95 126 0 97 92 98 93 ?32 29 96 209 0 98 0 93 -.0115 .04 .004
90747728811182 18 98 125 0 99 95 0 96 ?32 17 99 0 100 97 101 98 102 103 0 104 -1
5 255 100 158 0 101 105 0 17 97 0 100 94 99 95 104 106 0 107 -17 101 0 100 99 88
 59 108 109 0 102 -17 102 0 110 71 111 59 99 103 0 112 +16 103 108 0 ?102 113 10
6 114 0 0 32 17 104 0 115 116 117 98 97 106 0 111 +15 115 147 0 104 118 0 17 116
 0 115 119 104 65 111 120 0 69 -17 117 0 115 104 119 95 121 122 0 0 +16 106 106
 0 ?104 103 123 124 0 0 32 17 111 0 110 102 69 98 116 120 0 0 +15 110 150 0 102
 125 0 17 69 0 110 111 71 65 64 70 0 0 -16 120 109 0 ?111 122 126 127 0 0 32 16
 122 107 0 ?117 128 120 129 0 0 32 16 126 99 0 ?112 120 70 130 0 0 32 30 255 127
 182 0 120 130 129 0 +-.0115 .045 .00490747728811182 0 -1 0 30 130 183 0 126 114
 127 0 +-.0115 .045 -.00490747728811182 0 -1 0 30 129 181 0 122 127 131 0 +-.02
 .045 .00981495457622364 0 -1 0 30 131 180 0 128 129 132 0 +-.0285 .045 .0049074
7728811182 0 -1 0 16 128 105 0 ?133 134 122 131 0 0 32 30 132 179 0 134 131 135
 0 +-.0285 .045 -.00490747728811182 0 -1 0 16 134 103 0 ?136 137 128 132 0 0 32
 30 135 178 0 137 132 138 0 +-.02 .045 -.00981495457622364 0 -1 0 16 137 101 0 ?
139 140 134 135 0 0 32 31 138 23 0 140 135 141 0 +-.02 .045 2449293598294705e-33
 0 1 0 0 0 1 .006 16 140 97 0 ?142 143 137 138 0 0 32 31 141 58 0 143 138 144 0
 +-.02 .07 2449293598294705e-33 0 1 0 0 0 1 .005 16 143 55 0 ?145 63 140 141 0 0
 32 31 144 64 0 63 141 58 0 --.02 .069 2449293598294705e-33 0 1 0 0 0 1 .006 16
 63 61 0 ?146 49 143 144 0 0 32 31 58 239 0 49 144 46 0 --.02 .035 2449293598294
705e-33 0 1 0 0 0 1 .005 17 146 0 147 146 146 0 148 63 0 0 +15 147 62 0 146 53 1
49 17 148 0 150 148 148 0 146 63 0 0 -15 150 74 0 148 55 151 14 255 55 73 152 ?1
53 154 150 44 45 +0 0 153 154 61 15 151 75 0 155 55 0 17 155 0 151 155 155 0 145
 143 0 0 -17 145 0 156 145 145 0 155 143 0 0 +15 156 56 0 145 154 0 14 154 1 157
 ?55 53 156 44 158 +0 0 55 53 61 81 1 157 589 159 154 160 0 161 152 162 14 53 25
 161 ?154 0 147 44 56 -0 0 154 0 61 50 255 158 2 0 154 163 56 0 +-.02 .07 244929
3598294705e-33 0 1 0 0 0 1 13 61 8 0 0 0 0 0 0 48 53 50 163 168 0 153 164 158 0
 +-.0115 .045 -.00490747728811182 -.5 0 .866025403784439 .866025403784439 0 .5 5
1 255 56 28 0 53 158 45 0 --.02 .07 2449293598294705e-33 0 -1 0 .006 0 0 -1 14 1
53 133 165 ?166 55 167 44 163 -0 0 166 55 61 50 164 169 0 166 168 163 0 +-.02 .0
45 -.00981495457622364 .5 0 .866025403784439 .866025403784439 0 -.5 14 166 136 1
69 ?170 153 171 44 164 -0 0 170 153 61 50 168 170 0 170 172 164 0 +-.0285 .045 -
.00490747728811182 1 0 0 0 0 -1 14 170 139 173 ?174 166 175 44 168 -0 0 174 166
 61 50 172 171 0 174 176 168 0 +-.0285 .045 .00490747728811182 .5 0 -.8660254037
84439 -.866025403784439 0 -.5 14 174 142 177 ?118 170 178 44 172 -0 0 118 170 61
 50 176 172 0 118 179 172 0 +-.02 .045 .00981495457622364 -.5 0 -.86602540378443
9 -.866025403784439 0 .5 14 118 145 180 ?125 174 115 44 176 -0 0 125 174 61 50 1
79 173 0 125 181 176 0 +-.0115 .045 .00490747728811182 -1 0 0 0 0 1 14 125 148 1
82 ?183 118 110 44 179 -0 0 183 118 61 50 181 174 0 183 184 179 0 +0 .045 0 0 1
 0 0 0 1 14 183 151 185 ?105 125 186 44 181 +0 0 105 125 61 54 255 184 175 0 187
 188 181 0 +-.02 .035 2449293598294705e-33 0 1 0 .013 .005 0 0 1 14 187 162 189
 ?190 191 192 44 184 +0 0 190 191 61 50 188 176 0 105 193 184 0 +-.02 .04 244929
3598294705e-33 0 1 0 0 0 1 14 105 155 194 ?191 183 195 44 188 +0 0 191 183 61 50
 193 177 0 191 196 188 0 +-.02 .035 2449293598294705e-33 0 1 0 0 0 1 14 191 159
 197 ?187 105 198 44 193 -0 0 187 105 61 51 196 263 0 190 199 193 0 --.02 .032 2
449293598294705e-33 0 1 0 .005 0 0 1 14 190 250 200 ?201 187 202 44 196 -0 0 201
 187 61 50 199 265 0 203 204 196 0 +-.02 .032 2449293598294705e-33 0 -1 0 0 0 -1
 14 203 255 205 ?0 206 207 44 199 +0 0 0 206 61 50 204 318 0 201 208 199 0 +-.02
 .0335 2449293598294705e-33 0 1 0 0 0 1 14 201 301 209 ?206 190 210 44 204 +0 0
 206 190 61 51 208 319 0 206 0 204 0 +-.02 .0547132034355964 2449293598294705e-3
3 0 -1 0 .0075 0 0 -1 14 206 311 211 ?203 201 212 44 208 +0 0 203 201 61 81 1 21
1 603 159 206 213 0 209 205 214 15 212 314 0 215 206 216 17 215 0 212 215 215 0
 217 218 0 0 -15 216 315 0 219 206 0 17 219 0 216 219 219 0 220 221 0 0 +17 220
 0 222 220 220 0 219 221 0 0 -16 221 292 0 ?219 57 218 223 0 0 32 16 57 287 0 ?2
24 225 221 46 0 0 32 16 218 289 0 ?217 221 0 226 0 0 32 31 223 322 0 221 226 227
 0 --.02 .0335 2449293598294705e-33 0 1 0 0 0 1 .0075 31 226 323 0 218 0 223 0 +
-.02 .032 2449293598294705e-33 0 -1 0 0 0 -1 .0075 31 227 197 0 225 223 228 0 --
.02 .035 2449293598294705e-33 0 1 0 0 0 1 .018 16 225 117 0 ?229 230 57 227 0 0
 32 31 228 196 0 230 227 231 0 +-.02 .04 2449293598294705e-33 0 1 0 0 0 1 .013 1
6 230 116 0 ?232 109 225 228 0 0 32 30 231 195 0 113 228 233 0 +-.0115 .045 -.00
490747728811182 -.866025403784439 0 -.5 16 113 110 0 ?67 234 103 231 0 0 32 30 2
33 194 0 234 231 235 0 +-.02 .045 -.00981495457622364 -.866025403784439 0 .5 16
 234 111 0 ?82 236 113 233 0 0 32 30 235 193 0 236 233 237 0 +-.0285 .045 -.0049
0747728811182 0 0 1 16 236 112 0 ?79 238 234 235 0 0 32 30 237 192 0 238 235 239
 0 +-.0285 .045 .00490747728811182 .866025403784439 0 .5 16 238 113 0 ?76 240 23
6 237 0 0 32 30 239 191 0 240 237 241 0 +-.02 .045 .00981495457622364 .866025403
784439 0 -.5 16 240 114 0 ?68 70 238 239 0 0 32 30 241 190 0 70 239 242 0 +-.011
5 .045 .00490747728811182 0 0 -1 16 70 115 0 ?64 126 240 241 0 0 32 30 242 189 0
 109 241 243 0 +-.0115 .04 -.00490747728811182 -.866025403784439 0 -.5 16 109 98
 0 ?108 244 230 242 0 0 32 30 243 188 0 244 242 245 0 +-.02 .04 -.00981495457622
364 -.866025403784439 0 .5 16 244 100 0 ?246 247 109 243 0 0 32 30 245 187 0 247
 243 248 0 +-.0285 .04 -.00490747728811182 0 0 1 16 247 102 0 ?249 123 244 245 0
 0 32 30 248 186 0 123 245 124 0 +-.0285 .04 .00490747728811182 .866025403784439
 0 .5 16 123 104 0 ?107 106 247 248 0 0 32 30 124 185 0 106 248 114 0 +-.02 .04
 .00981495457622364 .866025403784439 0 -.5 30 114 184 0 103 124 130 0 +-.0115 .0
4 .00490747728811182 0 0 -1 17 107 0 178 121 133 95 94 123 0 117 +15 178 144 0 1
07 174 0 17 121 0 178 250 107 72 117 122 0 119 -17 133 0 178 107 250 92 251 128
 0 0 +17 94 0 100 91 97 92 107 123 0 249 -17 91 0 100 88 94 89 249 247 0 246 -17
 249 0 175 251 136 92 91 247 0 133 +15 175 141 0 249 170 0 17 251 0 175 252 249
 77 133 128 0 250 -17 136 0 175 249 252 89 253 134 0 0 +17 252 0 175 136 251 80
 79 236 0 0 -17 253 0 171 85 246 80 136 134 0 252 -15 171 138 0 246 166 0 17 85
 0 171 139 253 83 82 234 0 67 -17 246 0 171 253 139 89 88 244 0 136 +17 139 0 17
1 246 85 86 254 137 0 108 +17 88 0 100 101 91 86 246 244 0 139 -17 254 0 167 255
 108 83 139 137 0 0 -17 108 0 167 254 112 86 101 109 0 0 +15 167 135 0 108 153 0
 17 112 0 167 108 255 59 71 126 0 0 +17 255 0 167 112 254 50 67 113 0 0 -18 59 1
24 0 101 83 86 47 ?32 17 71 0 110 69 102 50 112 126 0 255 -17 67 0 66 82 64 83 2
55 113 0 254 +15 66 154 0 67 183 0 17 82 0 66 79 67 80 85 234 0 253 +17 79 0 66
 76 82 77 252 236 0 251 +17 76 0 66 68 79 72 250 238 0 121 +17 68 0 66 64 76 65
 119 240 0 116 +17 250 0 178 133 121 77 76 238 0 0 -17 119 0 115 117 116 72 68 2
40 0 0 -17 232 0 195 232 232 0 256 230 0 0 +15 195 157 0 232 105 100 17 256 0 25
7 256 256 0 232 230 0 0 -15 257 165 0 256 187 0 17 229 0 258 229 229 0 259 225 0
 0 +15 258 161 0 229 191 0 17 259 0 192 259 259 0 229 225 0 0 -15 192 164 0 259
 187 257 17 217 0 207 217 217 0 215 218 0 0 +15 207 310 0 217 203 0 17 224 0 202
 224 224 0 260 57 0 0 +15 202 281 0 224 190 261 17 260 0 210 260 260 0 224 57 0
 0 -15 210 305 0 260 201 222 15 222 306 0 220 201 0 15 261 254 0 62 190 0 17 62
 0 261 62 62 0 262 49 0 0 +17 262 0 198 262 262 0 62 49 0 0 -15 198 238 0 262 19
1 258 80 255 1 159 0 263 8001 0 0 0 0 3 5 0 0 0 FFFFTFTFFFFFFF2 81 1 213 587 264
 206 0 211 265 0 266 81 1 209 602 159 201 265 0 200 211 267 81 1 205 604 159 203
 268 0 211 0 269 83 255 3 214 .792156862745098 .819607843137255 .933333333333333
 81 1 268 583 264 203 0 205 270 265 271 83 3 269 .792156862745098 .8196078431372
55 .933333333333333 80 1 264 272 273 9000 1 1 1 1 1 1 1 1 0 FFFFTFTFFFFFFF1 81 1
 270 580 264 190 0 200 274 268 275 81 1 265 585 264 201 0 209 268 213 276 82 255
 1 271 593626507 82 1 276 612828555 81 1 200 601 159 190 270 0 189 209 277 81 1
 274 578 264 191 0 197 278 270 279 82 1 275 595592587 81 1 197 599 159 191 274 0
 194 189 280 81 1 278 576 264 105 0 194 281 274 282 82 1 279 563938697 81 1 194
 598 159 105 278 0 185 197 283 81 1 281 574 264 187 0 189 284 278 285 82 1 282 5
71606405 81 1 189 600 159 187 281 0 197 200 286 81 1 284 572 264 183 0 185 287 2
81 288 82 1 285 563676549 81 1 185 597 159 183 284 0 182 194 289 81 1 287 570 26
4 125 0 182 290 284 291 82 1 288 558368133 81 1 182 596 159 125 287 0 180 185 29
2 81 1 290 568 264 118 0 180 293 287 294 82 1 291 558237061 81 1 180 595 159 118
 290 0 177 182 295 81 1 293 566 264 174 0 177 296 290 297 82 1 294 558433669 81
 1 177 594 159 174 293 0 173 180 298 81 1 296 564 264 170 0 173 299 293 300 82 1
 297 559220101 81 1 173 593 159 170 296 0 169 177 301 81 1 299 562 264 166 0 169
 302 296 303 82 1 300 558892421 81 1 169 592 159 166 299 0 165 173 304 81 1 302
 560 264 153 0 165 305 299 306 82 1 303 558761349 81 1 165 591 159 153 302 0 152
 169 307 81 1 305 558 264 53 0 161 160 302 308 82 1 306 558630277 81 1 161 588 1
59 53 305 0 0 157 309 81 1 160 556 264 154 0 157 310 305 311 82 1 308 162923897
 81 1 310 554 264 55 0 152 0 160 312 82 1 311 160957817 81 1 152 590 159 55 310
 0 157 165 313 82 1 312 431687033 83 3 313 .792156862745098 .819607843137255 .93
3333333333333 83 3 309 .792156862745098 .819607843137255 .933333333333333 83 3 3
07 .792156862745098 .819607843137255 .933333333333333 83 3 304 .792156862745098
 .819607843137255 .933333333333333 83 3 301 .792156862745098 .819607843137255 .9
33333333333333 83 3 298 .792156862745098 .819607843137255 .933333333333333 83 3
 295 .792156862745098 .819607843137255 .933333333333333 83 3 292 .79215686274509
8 .819607843137255 .933333333333333 83 3 289 .792156862745098 .819607843137255 .
933333333333333 83 3 286 1 1 1 83 3 283 1 1 1 83 3 280 .792156862745098 .8196078
43137255 .933333333333333 83 3 277 .792156862745098 .819607843137255 .9333333333
33333 79 255 14 273 SWEntUnchanged83 3 267 .792156862745098 .819607843137255 .93
3333333333333 82 1 266 615056779 79 15 263 SDL/TYSA_COLOUR15 186 153 0 314 183 6
6 17 314 0 186 314 314 0 142 140 0 0 -17 142 0 149 142 142 0 314 140 0 0 +15 149
 26 0 142 53 0 83 3 162 .792156862745098 .819607843137255 .933333333333333 19 54
 30 0 32 0 48 44 S0 74 4 CI16 index_map_offset0 0 1 dCCZ20 52 3 0 0 213 205 41 0
 0 0 0 0 0 0 0 0 0 0 0 0 0 0 0 0 80 1 5 315 316 8017 0 0 0 0 0 0 0 0 0 TTTTTTTTT
TTTTF3 84 255 14 51 caster-2inch-179 13 316 SDL/TYSA_NAME81 1 30 2586 5 22 0 0 0
 0 317 70 31 0 4 T22 0 0 3 20 1 318 318 13 33 214 0 22 0 319 0 0 320 0 51 34 198
5 0 321 322 0 0 +.00392047551151721 -.000954306890511427 -.011 0 0 -1 .005 -1 0
 0 31 35 1938 0 38 323 0 0 +.00392047551151721 -.000954306890511427 -.0125 -3542
442045435705e-31 0 -1 -1 0 3542442045435705e-31 .005 29 36 1924 0 39 324 0 .0086
6075748822211 -.00254481837469714 -.011 19 37 64 0 22 320 0 325 V0 16 38 1936 0
 ?326 0 327 35 0 0 22 18 39 1922 0 328 0 329 36 ?22 17 328 0 330 331 332 39 333
 327 0 334 -18 329 1919 0 326 39 335 324 ?22 17 326 0 336 337 338 329 339 38 0 3
40 +18 335 1900 0 341 329 342 343 ?22 29 324 1921 0 329 343 36 .0086607574882221
1 -.00254481837469714 -.0125 29 343 1902 0 335 344 324 .00886402533314104 -.0002
05097199488302 .011 29 344 1899 0 342 345 343 .00886402533314104 -.0002050971994
88302 -.0125 18 342 1897 0 346 335 347 344 ?22 29 345 1896 0 347 348 344 .008864
02533314104 -.000205097199488302 -.011 18 347 1894 0 333 342 349 345 ?22 29 348
 1888 0 349 350 345 .00886402533314104 -.000205097199488302 .0125 18 349 1886 0
 351 347 352 348 ?22 29 350 1880 0 352 353 348 .00866075748822211 -.002544818374
69714 .0125 18 352 1878 0 354 349 355 350 ?22 29 353 1877 0 355 356 350 .0086607
5748822211 -.00254481837469714 .011 18 355 1875 0 357 352 358 353 ?22 29 356 162
5 0 358 359 353 .001076306325494264 -.008 .011 18 358 1623 0 360 355 361 356 ?22
 29 359 1622 0 361 362 356 3469446951953615e-33 -.008 .011 18 361 1620 0 363 358
 364 359 ?22 29 362 1609 0 364 365 359 3469446951953615e-33 -.008 .0125 18 364 1
607 0 366 361 367 362 ?22 29 365 1606 0 367 368 362 .001076306325494264 -.008 .0
125 18 367 1604 0 369 364 370 365 ?22 29 368 1593 0 370 371 365 -.00569091197874
582 -.00562259022605839 .0125 18 370 1591 0 372 367 373 368 ?22 29 371 1580 0 37
3 374 368 -.00569091197874583 -.00562259022605838 -.0125 18 373 1578 0 375 370 3
76 371 ?22 29 374 1567 0 376 377 371 .001076306325494264 -.008 -.0125 18 376 156
5 0 337 373 378 374 ?22 29 377 1564 0 378 379 374 3469446951953615e-33 -.008 -.0
125 18 378 1562 0 380 376 381 377 ?22 29 379 1549 0 381 382 377 3469446951953615
e-33 -.008 -.011 18 381 1547 0 383 378 384 379 ?22 29 382 1546 0 384 385 379 .00
1076306325494264 -.008 -.011 18 384 1544 0 386 381 387 382 ?22 29 385 1533 0 387
 388 382 -.0063893424111838 -.00481417734952171 .011 18 387 1531 0 389 384 390 3
85 ?22 29 388 1530 0 390 391 385 -.0063893424111838 -.00481417734952172 -.011 18
 390 1528 0 392 387 393 388 ?22 29 391 1517 0 393 394 388 -.0286 .0248 .01694225
48676379 18 393 1515 0 395 390 396 391 ?22 29 394 1514 0 396 397 391 -.0064 -.00
48 .01326800663249758 18 396 1512 0 398 393 399 394 ?22 29 397 1511 0 399 400 39
4 -.0064 -.0048 .0110131739294356 18 399 1509 0 401 396 402 397 ?22 29 400 1508
 0 402 403 397 -.0286 .0248 .01524106295505665 18 402 1506 0 404 399 405 400 ?22
 29 403 1495 0 405 406 400 -.0064 -.0048 -.01326800663249756 18 405 1493 0 407 4
02 408 403 ?22 29 406 1492 0 408 409 403 -.0286 .0248 -.0169422548676379 18 408
 1490 0 410 405 411 406 ?22 29 409 1489 0 411 412 406 -.0286 .0248 -.01524106295
505665 18 411 1487 0 413 408 414 409 ?22 29 412 1486 0 414 415 409 -.0064 -.0048
 -.0110131739294356 18 414 1484 0 416 411 417 412 ?22 29 415 1473 0 417 418 412
 -.035 .028 -.0116619037896906 18 417 1471 0 419 414 420 415 ?22 29 418 1470 0 4
20 421 415 -.035 .028 .0116619037896906 18 420 1468 0 422 417 423 418 ?22 29 421
 1467 0 423 424 418 -.035 .028 .00901387818865998 18 423 1465 0 425 420 426 421
 ?22 29 424 1464 0 426 427 421 -.035 .028 -.00901387818865997 18 426 1462 0 428
 423 429 424 ?22 29 427 667 0 429 430 424 .003680141033614215 .034 -.0125 18 429
 665 0 431 426 432 427 ?22 29 430 590 0 432 433 427 -.00569091197874582 .034 .01
25 18 432 588 0 434 429 435 430 ?22 29 433 565 0 435 436 430 -.00569091197874583
 .034 -.0125 18 435 563 0 437 432 438 433 ?22 29 436 552 0 438 439 433 -.0061526
1757587377 .035 -.0115 18 438 550 0 440 435 441 436 ?22 29 439 548 0 441 442 436
 -.00615261757587378 .035 .0115 18 441 546 0 443 438 444 439 ?22 29 442 493 0 44
4 445 439 -.0063893424111838 .0335 -.011 18 444 413 0 446 441 447 442 ?22 29 445
 494 0 447 448 442 -.0063893424111838 .0335 .011 18 447 414 0 449 444 450 445 ?2
2 29 448 1374 0 450 451 445 .003755917521973445 .0335 .011 18 450 918 0 452 447
 453 448 ?22 29 451 1375 0 453 454 448 .003755917521973445 .0335 -.011 18 453 93
0 0 455 450 456 451 ?22 29 454 1376 0 456 457 451 .003680141033614215 .034 .0125
 18 456 931 0 458 453 459 454 ?22 29 457 1384 0 459 460 454 .00352858805689575 .
035 .0115 18 459 932 0 461 456 462 457 ?22 29 460 1385 0 462 0 457 .003528588056
89575 .035 -.0115 18 462 921 0 463 459 0 460 ?22 17 463 0 464 461 431 462 465 46
6 0 467 +15 464 972 0 468 469 0 17 461 0 464 458 463 459 467 470 0 471 +17 431 0
 464 463 346 429 338 472 0 465 +17 465 0 473 474 475 429 463 466 0 476 -16 466 6
71 0 ?463 477 478 479 0 0 22 17 467 0 480 440 481 462 461 470 0 475 -15 480 697
 0 467 482 0 17 440 0 480 443 467 438 475 483 0 484 +17 481 0 480 467 443 459 48
5 486 0 0 +16 470 901 0 ?461 472 487 488 0 0 22 17 475 0 473 465 484 462 440 483
 0 0 -15 473 672 0 465 489 0 17 484 0 473 475 474 438 490 491 0 492 +16 483 669
 0 ?440 493 494 495 0 0 22 16 493 566 0 ?476 496 483 497 0 0 22 16 494 551 0 ?44
3 483 486 498 0 0 22 30 495 556 0 483 498 497 0 +-.02 .035 -.0115 -1 0 354244204
5435705e-31 31 498 553 0 494 499 495 0 +-.02 .035 2449293598294705e-33 0 1 0 0 0
 1 .018 30 497 568 0 493 495 500 0 -.009 .034 -.0125 -1 0 3542442045435705e-31 3
1 500 593 0 496 497 501 0 --.02 .034 2449293598294705e-33 0 1 0 0 0 1 .019 16 49
6 591 0 ?502 478 493 500 0 0 22 30 501 598 0 478 500 503 0 -.009 .034 .0125 1 0
 -3542442045435705e-31 16 478 680 0 ?504 466 496 501 0 0 22 38 255 503 640 0 491
 501 505 0 +506 507 508 509 510 16 491 627 0 ?484 511 512 503 0 0 22 38 505 639
 0 511 503 479 0 +513 506 514 515 516 54 506 638 0 517 518 507 519 +-.02 .034 24
49293598294705e-33 0 1 0 .018 .001 0 0 1 51 507 637 0 489 506 513 520 +-.02 .034
 -.0115 -1 0 3542442045435705e-31 .001 3542442045435705e-31 0 1 40 255 6 508 0 1
 6 549193942480093e-19 .342716530921392 ??-.00569091197874582 .034 -.0125 -.0057
131424131378 .0343088832025724 -.01245109997748322 -.00577621921314595 .03458259
222096085 -.01231276460557526 -.00587553296767641 .03480283772224095 -.012096197
61132276 -.00600944654132965 .0349518437530263 -.01180658354460868 -.00614955386
014725 .0349999786952569 -.0115065275594565 41 3 CI8 term_use0 0 1 cCZ1 509 L?-.
00569091197874582 .034 -.0125 41 2 510 TF-.00615261757587377 .035 -.0115 -.00614
955386014725 .0349999786952569 -.0115065275594565 14 489 614 521 ?469 517 473 33
 507 +0 0 469 517 325 51 513 636 0 522 507 523 524 +-.02 .034 .0115 1 0 -3542442
045435705e-31 .001 -3542442045435705e-31 0 -1 141 255 520 503 520 520 507 14 522
 610 525 ?517 526 527 33 513 +0 0 517 526 325 51 523 1713 0 528 513 529 530 +-.0
35 .02 -.019 0 0 -1 .008 -1 0 0 141 524 505 524 524 513 14 528 1701 531 ?532 533
 534 33 523 -0 0 532 533 325 51 529 1734 0 532 523 535 536 +-.035 .02 -.019 0 0
 -1 .008 -1 0 0 141 530 537 538 538 523 38 537 1664 0 539 540 541 0 +523 542 543
 544 545 141 538 541 530 530 523 38 541 1665 0 546 537 547 0 +523 518 548 549 55
0 16 546 1652 0 ?419 551 539 541 0 0 22 38 547 1666 0 551 541 552 0 +529 518 553
 554 555 51 518 203 0 556 557 506 558 +-.02 -.02 2449293598294705e-33 0 1 0 .019
 0 0 1 40 4 548 0 1 4 .000649087752791079 .349211921208173 ??-.0286 .0248 -.0169
422548676379 -.0303957803687691 .02654225966982265 -.0159037024156111 -.03239298
94971097 .0275632992957981 -.0144018683275653 -.035 .028 -.0116619037896906 41 1
 549 L?-.0286 .0248 -.0169422548676379 41 1 550 L?-.035 .028 -.0116619037896906
 14 556 193 559 ?560 561 562 33 518 +0 0 560 561 325 50 557 202 0 563 564 518 0
 +.009 -.02 .0125 3542442045435705e-31 0 1 1 0 -3542442045435705e-31 141 558 565
 566 567 518 38 565 1596 0 568 569 570 0 +518 571 572 573 574 141 566 547 575 55
8 518 141 567 570 558 575 518 38 570 1601 0 576 565 577 0 +518 535 578 579 580 1
41 575 541 567 566 518 16 576 1599 0 ?407 581 568 570 0 0 22 31 577 1612 0 581 5
70 582 0 +.001076306325494264 0 .0125 3542442045435705e-31 0 1 1 0 -354244204543
5705e-31 .008 51 535 1759 0 583 529 571 584 +3469446951953615e-33 0 -.019 0 0 1
 .008 1 0 0 40 2 578 0 1 2 .0001136984964277804 .1679155580170975 ??-.0056909119
7874583 -.00562259022605838 -.0125 -.0064 -.0048 -.01326800663249758 41 1 579 L?
-.00569091197874583 -.00562259022605838 -.0125 41 1 580 L?-.0064 -.0048 -.013268
00663249758 14 583 1743 585 ?586 532 587 33 535 +0 0 586 532 325 51 571 1786 0 5
86 535 588 589 +3469446951953615e-33 0 -.019 0 0 1 .008 1 0 0 141 584 590 591 59
1 535 38 590 1541 0 592 593 594 0 +542 535 595 596 597 141 591 570 584 584 535 1
6 592 1539 0 ?392 598 599 590 0 0 22 38 593 1536 0 599 600 590 0 +542 571 601 60
2 603 31 594 1552 0 598 590 604 0 +.001076306325494264 0 -.011 -1156482317317876
e-30 0 1 1 0 1156482317317876e-30 .008 51 542 198 0 605 606 564 607 --.02 -.02 2
449293598294705e-33 0 1 0 .0175 0 0 1 40 2 595 0 1 2 3266154956147185e-23 .00295
561213347796 ??-.0064 -.0048 -.0110131739294356 -.0063893424111838 -.00481417734
952172 -.011 41 1 596 L?-.0064 -.0048 -.0110131739294356 41 1 597 L?-.0063893424
111838 -.00481417734952172 -.011 14 605 333 608 ?561 319 609 33 542 +0 0 561 319
 325 50 606 196 0 319 610 542 0 +.0075 -.02 -.011 -1156482317317876e-30 0 1 1 0
 1156482317317876e-30 50 564 199 0 561 542 557 0 +.0075 -.02 .011 0 0 -1 -1 0 0
 141 607 593 611 612 542 141 611 552 613 607 542 141 612 590 607 613 542 141 613
 537 612 611 542 38 552 1667 0 614 547 615 0 +529 542 616 617 618 16 614 1660 0
 ?425 619 551 552 0 0 22 30 615 1883 0 619 552 620 0 -.00866075748822211 -.00254
481837469714 -.011 0 0 -1 40 5 616 0 1 5 .000670819437055489 .350958430288093 ??
-.0286 .0248 .01524106295505665 -.03035840951852795 .02651579909161635 .01410508
249697496 -.03226451491622735 .0275177869986092 .01248325573997572 -.03472392974
70546 .02799523515698185 .00945811253918038 -.035 .028 .00901387818865998 41 1 6
17 L?-.0286 .0248 .01524106295505665 41 1 618 L?-.035 .028 .00901387818865998 16
 619 1881 0 ?621 622 614 615 0 0 22 31 620 1891 0 622 615 623 0 +.00392047551151
721 -.000954306890511427 .0125 3542442045435705e-31 0 1 1 0 -3542442045435705e-3
1 .005 16 622 1889 0 ?351 624 619 620 0 0 22 30 623 1905 0 624 620 625 0 -.00886
402533314104 -.000205097199488306 -.0125 0 0 1 16 624 1903 0 ?346 626 622 623 0
 0 22 30 625 1910 0 626 623 627 0 -.00886402533314104 -.000205097199488306 .011
 0 0 1 16 626 1908 0 ?341 628 624 625 0 0 22 31 627 1915 0 628 625 629 0 +.00392
047551151721 -.000954306890511427 .011 0 0 -1 -1 0 0 .005 16 628 1913 0 ?357 630
 626 627 0 0 22 30 629 1927 0 630 627 323 0 -.00866075748822211 -.00254481837469
714 -.011 0 0 -1 16 630 1925 0 ?334 327 628 629 0 0 22 31 323 1932 0 327 629 35
 0 +.00392047551151721 -.000954306890511427 -.011 -1156482317317876e-30 0 1 1 0
 1156482317317876e-30 .005 16 327 1930 0 ?333 38 630 323 0 0 22 17 333 0 631 632
 633 347 328 327 0 634 +15 631 861 0 633 319 0 17 632 0 631 635 333 453 634 636
 0 637 -17 633 0 631 333 638 39 386 598 0 0 +17 634 0 464 346 455 347 632 636 0
 332 +17 346 0 464 431 634 342 332 624 0 338 +17 455 0 464 634 452 453 639 640 0
 632 -16 636 877 0 ?634 641 642 643 0 0 22 17 332 0 330 328 339 347 346 624 0 0
 -15 330 1974 0 339 321 0 17 339 0 330 332 331 342 326 38 0 0 -17 331 0 330 339
 328 329 334 630 0 0 -17 334 0 644 386 340 39 331 630 0 633 +15 644 1798 0 340 6
45 0 17 386 0 644 646 334 384 633 598 0 647 -17 340 0 644 334 646 329 337 648 0
 331 -17 646 0 644 340 386 376 647 649 0 0 -17 337 0 336 650 326 376 340 648 0 6
51 +16 648 1920 0 ?337 652 653 654 0 0 22 16 652 1586 0 ?375 568 648 569 0 0 22
 16 653 1573 0 ?380 648 649 655 0 0 22 31 654 1583 0 648 655 569 0 +.00107630632
5494264 0 -.0125 -3542442045435705e-31 0 -1 -1 0 3542442045435705e-31 .008 30 65
5 1575 0 653 656 654 0 -3469446951953615e-33 -.008 -.019 0 0 1 31 569 1588 0 652
 654 565 0 +3469446951953615e-33 0 -.0125 -3542442045435705e-31 0 -1 -1 0 354244
2045435705e-31 .008 30 656 1570 0 649 604 655 0 -.001076306325494264 -.008 -.019
 0 0 -1 16 649 1568 0 ?647 653 657 656 0 0 22 31 604 1558 0 657 594 656 0 +34694
46951953615e-33 0 -.011 -1156482317317876e-30 0 1 1 0 1156482317317876e-30 .008
 16 657 1556 0 ?383 649 598 604 0 0 22 17 383 0 631 638 658 381 659 657 0 660 +1
6 598 1550 0 ?633 657 592 594 0 0 22 17 638 0 631 633 383 384 660 661 0 0 -17 65
8 0 631 383 635 390 446 662 0 659 -17 659 0 587 416 663 390 383 657 0 0 -17 660
 0 664 380 647 381 638 661 0 663 +15 664 1174 0 660 665 0 17 380 0 664 651 660 3
78 663 653 0 650 +17 647 0 664 660 651 384 646 649 0 638 +16 661 1545 0 ?660 666
 667 668 0 0 22 17 663 0 587 659 669 381 380 653 0 0 -15 587 1744 0 669 583 0 17
 669 0 587 663 670 378 375 652 0 0 -17 670 0 587 669 671 373 407 576 0 0 -17 375
 0 336 437 650 373 669 652 0 672 +15 336 788 0 338 560 0 17 437 0 336 476 375 43
5 672 673 0 502 +17 650 0 336 375 337 378 651 641 0 669 -17 672 0 562 407 502 37
3 437 673 0 670 -15 562 820 0 672 556 0 17 407 0 562 674 672 405 670 576 0 675 +
17 502 0 562 672 434 435 676 496 0 474 +16 673 1579 0 ?437 486 662 677 0 0 22 16
 486 547 0 ?481 494 673 499 0 0 22 16 662 1529 0 ?446 673 678 679 0 0 22 30 677
 204 0 673 680 679 0 +-.00569091197874583 -.02 -.0125 0 1 0 30 680 473 0 681 682
 677 0 +.0075 .0335 -.011 -1 0 -1156482317317876e-30 30 679 208 0 662 677 683 0
 +-.0063893424111838 -.02 -.011 0 1 0 30 683 209 0 678 679 684 0 +-.006389342411
1838 -.02 .011 0 1 0 16 678 1532 0 ?449 662 685 683 0 0 22 30 684 213 0 685 683
 499 0 +-.00569091197874582 -.02 .0125 0 1 0 16 685 1592 0 ?434 678 681 684 0 0
 22 30 499 549 0 486 684 498 0 +-.02 .035 .0115 1 0 -3542442045435705e-31 17 434
 0 562 502 372 432 686 685 0 504 +16 681 687 0 ?635 685 687 680 0 0 22 17 635 0
 631 658 632 444 637 681 0 688 +16 687 366 0 ?689 681 690 682 0 0 22 17 689 0 60
9 691 446 447 688 687 0 0 +16 690 367 0 ?692 687 511 693 0 0 22 31 682 474 0 687
 693 680 0 +-.02 .0335 2449293598294705e-33 0 1 0 0 0 1 .0175 30 693 475 0 690 6
94 682 0 +.0075 .0335 .011 1 0 0 31 694 1276 0 512 695 693 0 +-.02 .028 24492935
98294705e-33 0 1 0 0 0 1 .0175 16 512 1463 0 ?696 491 697 694 0 0 22 32 255 695
 1278 0 698 699 694 0 +-.02 .01333333333333334 2449293598294705e-33 .8 .6 0 -.6
 .8 0 .02916666666666665 .0175 16 698 1507 0 ?700 697 701 695 697 697 22 32 699
 1281 0 666 668 695 0 --.02 .01333333333333334 2449293598294705e-33 .8 .6 0 -.6
 .8 0 .03166666666666665 .019 16 666 1513 0 ?702 701 661 699 701 701 22 30 668 1
282 0 661 703 699 0 +.0075 -.008 -.011 -1 0 -1156482317317876e-30 30 703 1283 0
 667 704 668 0 +.0075 -.008 .011 1 0 0 16 667 1621 0 ?705 661 641 703 0 0 22 30
 704 1284 0 641 643 703 0 +.009 -.008 -.0125 1 0 -3542442045435705e-31 16 641 15
63 0 ?651 667 636 704 0 0 22 30 643 1305 0 636 706 704 0 +.01176601856200054 -.0
193534721881926 -.011 .149841938204624 -.988709964324767 1732895519262855e-31 30
 706 1306 0 642 707 643 0 +.01176601856200054 -.0193534721881926 .011 -.14984193
8204624 .988709964324767 0 16 642 1901 0 ?452 636 640 706 0 0 22 30 707 1307 0 6
40 708 706 0 +.003755917521973445 .0335 2449293598294705e-33 0 0 1 16 640 898 0
 ?639 642 709 707 0 0 22 30 708 1308 0 709 710 707 0 +.01179969747166792 -.01957
569751425755 .0125 .149841938204624 -.988709964324767 -530806382065639e-31 16 70
9 881 0 ?468 640 711 708 0 0 22 32 710 1309 0 711 712 708 0 -.003680141033614215
 .034 .0115 -.988709964324767 -.149841938204624 0 .149841938204624 -.98870996432
4767 -236411920980236e-29 .001011418956096942 .001 16 711 880 0 ?458 709 472 710
 0 0 22 30 712 1310 0 472 488 710 0 +.01179969747166792 -.01957569751425755 -.01
25 -.149841938204624 .988709964324767 530806382065639e-31 16 472 1898 0 ?431 711
 470 712 0 0 22 30 488 1332 0 470 713 712 0 +.00352858805689575 .035 -.019 0 0 1
 31 713 2076 0 487 714 488 0 +0 0 -.011 -1156482317317876e-30 0 1 1 0 1156482317
317876e-30 .004 16 487 2037 0 ?715 470 716 713 0 0 22 31 714 2077 0 716 717 713
 0 +0 0 .011 0 0 -1 -1 0 0 .004 16 716 2036 0 ?718 487 719 714 0 0 22 31 717 207
8 0 719 720 714 0 +0 0 -.0125 -3542442045435705e-31 0 -1 -1 0 3542442045435705e-
31 .004 16 719 2041 0 ?721 716 722 717 0 0 22 31 720 2079 0 722 723 717 0 +0 0 .
0125 0 0 1 1 0 0 .004 16 722 2042 0 ?724 719 725 720 0 0 22 31 723 2146 0 725 72
6 720 0 +-.02 .035 2449293598294705e-33 0 1 0 0 0 1 .005 16 725 2121 0 ?727 722
 728 723 0 0 22 31 726 2147 0 728 0 723 0 +-.02 .0335 2449293598294705e-33 0 -1
 0 0 0 -1 .005 16 728 2122 0 ?729 725 0 726 0 0 22 17 729 0 730 729 729 0 731 72
8 0 0 +15 730 2134 0 729 732 0 17 731 0 733 731 731 0 729 728 0 0 -15 733 2106 0
 731 526 734 14 526 459 735 ?522 482 733 33 736 -0 0 522 482 325 15 734 461 0 63
7 526 0 17 637 0 734 639 688 453 635 681 0 0 -17 639 0 734 737 637 450 455 640 0
 692 +17 688 0 734 637 737 444 689 687 0 0 -17 737 0 734 688 639 447 692 690 0 6
89 -17 692 0 738 739 449 450 737 690 0 0 +15 738 835 0 739 561 0 17 739 0 738 35
7 692 335 452 642 0 740 -17 449 0 738 692 389 447 691 678 0 737 +17 389 0 738 44
9 741 387 742 743 0 691 +17 691 0 609 401 689 387 449 678 0 744 -15 609 849 0 74
5 605 0 17 401 0 609 746 691 399 744 599 0 700 +17 744 0 747 742 748 387 401 599
 0 0 -15 747 1771 0 742 586 0 17 742 0 747 749 744 361 389 743 0 0 -17 748 0 747
 744 398 399 750 751 0 0 -16 599 1534 0 ?401 592 752 593 0 0 22 16 752 1523 0 ?4
04 599 751 600 0 0 22 17 404 0 753 700 702 402 754 752 0 746 +16 751 1518 0 ?750
 752 755 756 0 0 22 30 600 1525 0 752 756 593 0 --.0286 .0248 .0136106575888162
 0 0 1 30 756 1520 0 751 757 600 0 +-.0064 -.0048 -.019 0 0 1 30 757 1503 0 755
 758 756 0 --.0286 .0248 -.01549193338482965 0 0 1 16 755 1501 0 ?410 751 759 75
7 0 0 22 30 758 1498 0 759 760 757 0 +-.0064 -.0048 -.019 0 0 1 16 759 1496 0 ?7
61 755 762 758 0 0 22 30 760 1481 0 762 763 758 0 +-.035 .028 -.0136106575888162
 0 0 1 16 762 1479 0 ?764 759 765 760 0 0 22 30 763 1476 0 765 766 760 0 +-.035
 .028 .01549193338482965 0 0 1 16 765 1474 0 ?767 762 768 763 0 0 22 31 766 800
 0 768 769 763 0 --.02 .028 2449293598294705e-33 0 1 0 0 0 1 .019 16 768 1469 0
 ?770 765 477 766 0 0 22 30 769 723 0 477 479 766 0 +.009 -.008 .0125 -1 0 35424
42045435705e-31 16 477 1605 0 ?771 768 466 769 0 0 22 32 479 673 0 466 505 769 0
 -.003680141033614215 .034 -.0115 -.988709964324767 -.149841938204624 0 -.149841
938204624 .988709964324767 236411920980236e-29 .001011418956096942 .001 17 771 0
 772 363 773 364 774 477 0 749 +15 772 1240 0 771 533 0 17 363 0 772 705 771 361
 749 775 0 741 +17 773 0 772 771 705 367 776 777 0 774 +17 774 0 778 779 366 367
 771 477 0 0 -17 749 0 747 780 742 364 363 775 0 0 -17 780 0 747 398 749 370 366
 781 0 0 -16 775 1631 0 ?363 782 777 783 0 0 22 16 782 1876 0 ?360 743 775 784 0
 0 22 16 777 1626 0 ?773 775 781 785 0 0 22 30 783 1633 0 775 785 784 0 -3469446
951953615e-33 -.008 -.019 0 0 1 30 785 1628 0 777 582 783 0 -.001076306325494264
 -.008 -.019 0 0 -1 31 784 1638 0 782 783 540 0 +.001076306325494264 0 .011 0 0
 -1 -1 0 0 .008 31 540 1644 0 743 784 537 0 +3469446951953615e-33 0 .011 0 0 -1
 -1 0 0 .008 16 743 1642 0 ?389 539 782 540 0 0 22 16 539 1648 0 ?413 546 743 53
7 0 0 22 17 413 0 609 745 786 411 428 539 0 787 +17 745 0 609 392 413 414 787 69
7 0 0 -17 786 0 609 413 425 426 696 512 0 0 -17 428 0 534 788 789 426 413 539 0
 764 -17 787 0 790 410 761 411 745 697 0 789 +15 790 1150 0 787 791 0 17 410 0 7
90 675 787 408 789 755 0 674 +17 761 0 790 787 675 414 671 759 0 745 +16 697 148
5 0 ?787 512 698 695 698 698 22 17 789 0 534 428 792 411 410 755 0 0 -15 534 170
2 0 792 528 0 17 792 0 534 789 788 408 419 546 0 0 -17 788 0 534 792 428 417 764
 762 0 0 -17 419 0 562 793 674 417 792 546 0 770 +17 793 0 562 395 419 420 770 7
68 0 0 -17 674 0 562 419 407 408 675 701 0 792 -17 770 0 794 764 767 417 793 768
 0 788 +15 794 1232 0 770 795 0 17 764 0 794 696 770 426 788 762 0 786 +17 767 0
 794 770 696 420 796 765 0 793 +17 696 0 794 767 764 423 786 512 0 796 +17 796 0
 797 798 422 423 767 765 0 0 -15 797 1723 0 798 532 0 17 798 0 797 754 796 402 4
25 614 0 0 -17 422 0 797 796 754 420 395 551 0 767 -17 754 0 797 422 798 393 404
 752 0 0 -17 395 0 562 799 793 393 422 551 0 702 +16 551 1656 0 ?395 614 546 547
 0 0 22 17 799 0 562 372 395 396 702 666 0 0 -17 702 0 753 404 750 393 799 666 0
 754 +15 753 1236 0 702 800 0 17 750 0 753 702 700 396 748 751 0 799 +17 700 0 7
53 750 404 399 746 698 0 748 +17 746 0 609 425 401 402 700 698 0 798 -17 425 0 6
09 786 746 423 798 614 0 696 +14 800 1233 801 ?533 795 753 33 802 -791 791 533 7
95 325 81 1 801 2573 159 800 803 0 804 805 806 14 533 1237 805 ?528 800 772 33 8
07 -665 665 528 800 325 14 795 1229 804 ?800 665 794 33 808 -0 0 800 665 325 50
 802 1268 0 800 809 807 0 +-.031 .028 -.019 .8 .6 0 -.6 .8 0 14 791 1147 810 ?66
5 469 790 33 802 -800 800 665 469 325 13 325 65 0 0 0 0 0 0 37 319 14 319 340 81
1 ?605 0 812 33 606 +0 0 605 0 325 81 1 811 2558 159 319 813 0 0 608 814 15 812
 2031 0 815 319 631 17 815 0 812 815 815 0 715 487 0 0 -17 715 0 816 715 715 0 8
15 487 0 0 +15 816 2053 0 715 817 818 14 817 2050 819 ?732 820 816 33 821 -820 8
20 732 820 325 15 818 2054 0 721 817 0 17 721 0 818 721 721 0 822 719 0 0 +17 82
2 0 823 822 822 0 721 719 0 0 -15 823 2020 0 822 560 336 14 560 175 824 ?563 556
 823 33 610 +0 0 563 556 325 81 1 824 2562 159 560 825 0 559 826 827 14 563 191
 826 ?482 560 828 33 557 +0 0 482 560 325 50 610 194 0 560 829 606 0 +.009 -.02
 -.0125 -3542442045435705e-31 0 -1 -1 0 3542442045435705e-31 50 829 143 0 482 73
6 610 0 +-.02 .035 2449293598294705e-33 0 1 0 0 0 1 14 482 91 830 ?526 563 831 3
3 829 +0 0 526 563 325 50 736 472 0 526 808 829 0 +-.02 .0335 2449293598294705e-
33 0 1 0 0 0 1 50 808 1263 0 795 807 736 0 +-.031 .028 -.019 0 1 0 0 0 1 50 807
 1267 0 533 802 808 0 +-.004 -.008 -.019 0 1 0 0 0 1 81 1 830 2564 159 482 832 0
 826 735 833 15 831 2113 0 834 482 480 17 834 0 831 834 834 0 727 725 0 0 -17 72
7 0 835 727 727 0 834 725 0 0 +15 835 2133 0 727 732 730 14 732 2130 836 ?0 817
 835 33 837 -0 0 0 817 325 81 1 836 2585 159 732 838 0 819 0 839 51 837 2143 0 7
32 0 821 0 +-.02 .07 2449293598294705e-33 0 -1 0 .005 0 0 -1 51 821 2073 0 820 8
37 809 0 +0 0 -.027 0 0 1 .004 1 0 0 14 820 2060 840 ?817 321 841 33 821 -817 81
7 817 321 325 50 809 1273 0 469 821 802 0 +.009 -.001102306015858548 -.019 -.988
709964324767 -.149841938204624 0 .149841938204624 -.988709964324767 0 14 469 969
 842 ?791 489 464 33 809 -0 0 791 489 325 81 1 842 2569 159 469 843 0 521 810 84
4 81 1 843 2538 264 469 0 842 845 846 847 81 1 521 2568 159 489 848 0 849 842 85
0 81 1 810 2570 159 791 851 0 842 852 853 83 3 844 1 1 1 81 1 851 2520 264 791 0
 810 854 813 855 81 1 852 2571 159 665 846 0 810 804 856 83 3 853 1 1 1 14 665 1
171 852 ?795 791 664 33 807 -533 533 795 791 325 81 1 846 2540 264 665 0 852 843
 857 858 81 1 804 2572 159 795 854 0 852 801 859 83 3 856 1 1 1 81 1 854 2518 26
4 795 0 804 860 851 861 83 3 859 1 1 1 81 1 860 2516 264 533 0 805 803 854 862 8
2 1 861 -61340311 81 1 805 2574 159 533 860 0 801 531 863 81 1 803 2514 264 800
 0 801 864 860 865 82 1 862 -61864599 81 1 864 2512 264 526 0 735 866 803 867 82
 1 865 -61995671 81 1 735 2565 159 526 864 0 830 525 868 81 1 866 2510 264 605 0
 608 869 864 870 82 1 867 -149158521 81 1 608 2559 159 605 866 0 811 871 872 81
 1 869 2508 264 583 0 585 873 866 874 82 1 870 -130611863 81 1 585 2577 159 583
 869 0 875 876 877 81 1 873 2506 264 556 0 559 878 869 879 82 1 874 59639145 81
 1 559 2561 159 556 873 0 871 824 880 81 1 878 2504 264 528 0 531 881 873 882 82
 1 879 -168295063 81 1 531 2575 159 528 878 0 805 875 883 81 1 881 2502 264 522
 0 525 848 878 884 82 1 882 55706985 81 1 525 2566 159 522 881 0 735 849 885 81
 1 848 2500 264 489 0 521 0 881 886 82 1 884 -120060568 82 1 886 -122878616 81 1
 849 2567 159 517 857 0 525 521 887 83 3 885 1 1 1 14 517 612 849 ?489 522 888 3
3 506 +0 0 489 522 325 81 1 857 2542 264 517 0 849 846 889 890 83 3 887 1 1 1 81
 1 889 2544 264 586 0 876 857 891 892 82 1 890 -121240219 14 586 1770 876 ?645 5
83 747 33 571 +0 0 645 583 325 81 1 876 2578 159 586 889 0 585 893 894 81 1 891
 2546 264 532 0 875 889 895 896 82 1 892 62260585 14 532 1722 875 ?583 528 797 3
3 529 -0 0 583 528 325 81 1 875 2576 159 532 891 0 531 585 897 81 1 895 2548 264
 645 0 893 891 898 899 82 1 896 57673065 14 645 1797 893 ?900 586 644 33 588 +0
 0 900 586 325 81 1 893 2579 159 645 895 0 876 901 902 81 1 898 2550 264 900 0 9
01 895 903 904 82 1 899 64882040 14 900 1818 901 ?905 645 906 33 907 +0 0 905 64
5 325 81 1 901 2580 159 900 898 0 893 908 909 81 1 903 2552 264 905 0 908 898 91
0 911 82 1 904 66848120 14 905 1952 908 ?321 900 912 33 322 +0 0 321 900 325 81
 1 908 2581 159 905 903 0 901 913 914 81 1 910 2554 264 321 0 913 903 915 916 82
 1 911 416613752 14 321 1973 913 ?820 905 330 33 34 +0 0 820 905 325 81 1 913 25
82 159 321 910 0 908 840 917 81 1 915 2557 264 561 0 871 910 0 918 82 1 916 4185
79832 14 561 325 871 ?556 605 919 33 564 +0 0 556 605 325 81 1 871 2560 159 561
 915 0 608 559 920 82 1 918 -131398277 83 3 920 1 1 1 15 919 2025 0 921 561 738
 17 921 0 919 921 921 0 718 716 0 0 -17 718 0 841 718 718 0 921 716 0 0 +15 841
 2063 0 718 820 922 15 922 2064 0 724 820 0 17 724 0 922 724 724 0 923 722 0 0 +
17 923 0 828 923 923 0 724 722 0 0 -15 828 2014 0 923 563 778 15 778 730 0 779 5
63 0 17 779 0 778 351 774 352 369 581 0 0 +17 351 0 778 924 779 349 354 622 0 46
8 +17 369 0 906 776 621 367 779 581 0 773 -16 581 1610 0 ?779 781 576 577 0 0 22
 16 781 1615 0 ?366 777 581 582 0 0 22 17 366 0 778 774 686 364 780 781 0 771 +3
1 582 1617 0 781 577 785 0 +3469446951953615e-33 0 .0125 3542442045435705e-31 0
 1 1 0 -3542442045435705e-31 .008 17 686 0 778 366 504 370 434 685 0 780 -17 504
 0 778 686 924 432 925 478 0 926 +17 924 0 778 504 351 456 468 709 0 925 -17 925
 0 527 471 926 456 504 478 0 0 -17 926 0 527 925 485 432 927 511 0 676 -15 527 6
83 0 471 522 0 17 485 0 527 926 471 441 481 486 0 927 -17 927 0 888 492 676 441
 926 511 0 0 +16 511 622 0 ?927 690 491 505 0 0 22 17 676 0 888 927 490 432 502
 496 0 0 -15 888 613 0 927 517 0 17 490 0 888 676 492 435 484 491 0 0 -17 492 0
 888 490 927 438 443 494 0 0 -17 443 0 480 481 440 441 492 494 0 485 +17 471 0 5
27 485 925 459 458 711 0 481 -17 458 0 464 468 461 456 471 711 0 924 +17 468 0 4
64 341 458 349 924 709 0 928 +17 341 0 464 452 468 335 928 626 0 739 +17 928 0 9
12 354 740 349 341 626 0 0 -15 912 1953 0 740 905 0 17 354 0 912 929 928 352 351
 622 0 621 -17 740 0 912 928 929 335 357 628 0 0 -17 929 0 912 740 354 355 621 6
19 0 0 -17 357 0 738 360 739 355 740 628 0 930 +17 360 0 738 741 357 358 930 782
 0 705 +17 930 0 906 621 776 355 360 782 0 929 -15 906 1819 0 930 900 0 17 621 0
 906 369 930 352 929 619 0 779 +17 776 0 906 930 369 358 773 777 0 0 -17 741 0 7
38 389 360 361 705 667 0 742 -17 705 0 772 773 363 358 741 667 0 776 +17 452 0 4
64 455 341 450 739 642 0 639 +81 1 840 2583 159 820 845 0 913 819 931 83 3 917 1
 1 1 81 1 845 2536 264 820 0 840 838 843 932 81 1 819 2584 159 817 933 0 840 836
 934 83 3 931 1 1 1 81 1 933 2525 264 817 0 819 813 825 935 83 3 934 1 1 1 81 1
 813 2523 264 319 0 811 851 933 936 81 1 825 2527 264 560 0 824 933 937 938 82 1
 935 448529787 81 1 937 2529 264 563 0 826 825 832 939 82 1 938 -169474693 81 1
 826 2563 159 563 937 0 824 830 940 81 1 832 2532 264 482 0 830 937 838 941 82 1
 939 -168426117 81 1 838 2534 264 732 0 836 832 845 942 82 1 941 -171571833 82 1
 942 583992711 83 3 940 1 1 1 82 1 936 -129890949 82 1 932 445449595 83 3 914 1
 1 1 51 322 1964 0 905 907 34 0 +.00392047551151721 -.000954306890511427 -.011 0
 0 -1 .005 -1 0 0 51 907 1830 0 900 588 322 0 +.001076306325494264 0 -.011 0 0 -
1 .008 -1 0 0 51 588 1809 0 645 571 907 0 +.001076306325494264 0 -.011 0 0 -1 .0
08 -1 0 0 83 3 909 1 1 1 83 3 902 1 1 1 83 3 897 1 1 1 83 3 894 1 1 1 83 3 883 1
 1 1 83 3 880 1 1 1 83 3 877 1 1 1 83 3 872 1 1 1 83 3 868 1 1 1 83 3 863 1 1 1
 82 1 858 27264361 82 1 855 32638313 83 3 850 1 1 1 82 1 847 -51837576 83 3 839
 1 1 1 83 3 833 1 1 1 83 3 827 1 1 1 83 3 814 1 1 1 83 3 806 1 1 1 17 372 0 562
 434 799 370 398 568 0 686 +17 398 0 747 748 780 396 372 568 0 750 -16 568 1594
 0 ?372 576 652 565 0 0 22 17 675 0 790 761 410 405 674 701 0 671 +16 701 1491 0
 ?675 698 666 699 666 666 22 17 671 0 587 670 416 405 761 759 0 0 -17 416 0 587
 671 659 414 392 592 0 761 -17 392 0 609 446 745 390 416 592 0 658 +17 446 0 609
 689 392 444 658 662 0 635 +17 651 0 664 647 380 376 650 641 0 646 +17 474 0 473
 484 465 435 476 493 0 490 -17 476 0 336 338 437 429 474 493 0 0 +17 338 0 336 3
26 476 342 431 472 0 339 -40 2 601 0 1 2 326615495619036e-22 .002955612133477105
 ??-.0063893424111838 -.00481417734952171 .011 -.0064 -.0048 .0110131739294356 4
1 1 602 L?-.0063893424111838 -.00481417734952171 .011 41 1 603 L?-.0064 -.0048 .
0110131739294356 141 589 593 943 943 571 141 943 565 589 589 571 40 2 572 0 1 2
 .000113698496427774 .1679155580170995 ??-.0064 -.0048 .01326800663249758 -.0056
9091197874582 -.00562259022605839 .0125 41 1 573 L?-.0064 -.0048 .01326800663249
758 41 1 574 L?-.00569091197874582 -.00562259022605839 .0125 40 4 553 0 1 4 .000
74709418985232 .348598996532412 ??-.035 .028 .0116619037896906 -.032208685218754
65 .0274972369438348 .01455843416131562 -.03010144694625495 .02632488561000475 .
0160922580638019 -.0286 .0248 .0169422548676379 41 1 554 L?-.035 .028 .011661903
7896906 41 1 555 L?-.0286 .0248 .0169422548676379 40 4 543 0 1 4 .00068241580537
5598 .366116533909489 ??-.035 .028 -.00901387818865997 -.03254259216036415 .0276
1322183505095 -.01220382652690426 -.0304465694359794 .02657771009536325 -.014039
9140673745 -.0286 .0248 -.01524106295505665 41 1 544 L?-.035 .028 -.009013878188
65997 41 1 545 L?-.0286 .0248 -.01524106295505665 141 536 547 944 944 529 141 94
4 552 536 536 529 141 519 503 945 945 506 141 945 505 519 519 506 40 6 514 0 1 6
 549193942480152e-19 .342716530921392 ??-.00569091197874582 .034 .0125 -.0057131
4241313781 .0343088832025724 .01245109997748324 -.00577621921314596 .03458259222
096085 .01231276460557526 -.00587553296767642 .03480283772224095 .01209619761132
278 -.00600944654132966 .0349518437530263 .0118065835446087 -.00614955386014726
 .0349999786952569 .0115065275594565 41 1 515 L?-.00569091197874582 .034 .0125 4
1 2 516 TF-.00615261757587378 .035 .0115 -.00614955386014726 .0349999786952569 .
0115065275594565 19 320 215 0 22 0 37 33 S0 74 20 318 3 0 0 915 836 30 0 0 0 0 0
 0 0 0 0 0 0 0 0 0 0 0 0 84 14 317 caster-2inch-281 1 20 705 5 12 0 0 0 0 946 70
 21 0 4 T12 0 0 3 20 1 947 947 13 23 29 0 12 0 948 0 0 949 0 54 24 404 0 950 951
 0 0 +0 0 .0085 0 0 1 .0145 5e-4 1 0 0 31 25 346 0 27 952 0 0 +0 0 .008 0 0 1 1
 0 0 .0145 19 26 7 0 12 949 0 953 V0 16 27 343 0 ?954 0 955 25 0 0 12 17 954 0 9
56 954 954 0 957 27 0 0 +16 955 337 0 ?958 27 959 952 0 0 12 17 958 0 960 958 95
8 0 961 955 0 0 +16 959 331 0 ?962 955 963 964 0 0 12 31 952 340 0 955 964 25 0
 +0 0 .0095 0 0 1 1 0 0 .015 31 964 334 0 959 965 952 0 -0 0 .0085 0 0 1 1 0 0 .
015 31 965 328 0 963 966 964 0 -0 0 .01 0 0 1 1 0 0 .0155 16 963 325 0 ?967 959
 968 965 0 0 12 31 966 322 0 968 969 965 0 +0 0 -.008 0 0 -1 -1 0 0 .0145 16 968
 319 0 ?970 963 971 966 0 0 12 31 969 316 0 971 972 966 0 +0 0 -.01 0 0 1 1 0 0
 .0155 16 971 313 0 ?973 968 974 969 0 0 12 31 972 310 0 974 975 969 0 -0 0 -.00
95 0 0 1 1 0 0 .015 16 974 307 0 ?976 971 977 972 0 0 12 31 975 304 0 977 978 97
2 0 -0 0 -.0085 0 0 -1 -1 0 0 .015 16 977 301 0 ?979 974 980 975 0 0 12 31 978 1
17 0 980 981 975 0 -0 0 -.01 0 0 1 1 0 0 .021 16 980 114 0 ?982 977 983 978 0 0
 12 31 981 111 0 983 984 978 0 -0 0 .006 0 0 1 1 0 0 .025 16 983 108 0 ?985 980
 986 981 0 0 12 31 984 105 0 986 987 981 0 +0 0 -.006 0 0 1 1 0 0 .025 16 986 10
2 0 ?988 983 989 984 0 0 12 31 987 99 0 989 990 984 0 +0 0 .01 0 0 1 1 0 0 .021
 16 989 96 0 ?991 986 992 987 0 0 12 31 990 71 0 993 994 987 0 +0 0 -.01 0 0 1 1
 0 0 .004 16 993 49 0 ?995 992 996 990 0 0 12 31 994 72 0 992 997 990 0 +0 0 .01
 0 0 1 1 0 0 .004 16 992 52 0 ?998 989 993 994 0 0 12 31 997 213 0 999 1000 994
 0 +0 0 -.01 0 0 -1 -1 0 0 .0075 16 999 184 0 ?1001 996 1002 997 0 0 12 31 1000
 214 0 996 1003 997 0 +0 0 -.008 0 0 -1 -1 0 0 .0075 16 996 178 0 ?1004 993 999
 1000 0 0 12 31 1003 283 0 1005 1006 1000 0 +0 0 .01 0 0 -1 -1 0 0 .0075 16 1005
 248 0 ?1007 1002 0 1003 0 0 12 31 1006 284 0 1002 0 1003 0 +0 0 .008 0 0 -1 -1
 0 0 .0075 16 1002 254 0 ?1008 999 1005 1006 0 0 12 17 1008 0 1009 1008 1008 0 1
010 1002 0 0 +15 1009 260 0 1008 1011 0 17 1010 0 1012 1010 1010 0 1008 1002 0 0
 -15 1012 273 0 1010 1013 1014 14 1013 270 1015 ?1016 1017 1012 23 1018 -0 0 101
6 1017 953 15 1014 274 0 1007 1013 0 17 1007 0 1014 1007 1007 0 1019 1005 0 0 +1
7 1019 0 1020 1019 1019 0 1007 1005 0 0 -15 1020 234 0 1019 948 0 14 948 236 102
1 ?1022 0 1023 23 1024 +1025 1025 1022 0 953 81 1 1021 687 159 948 1026 0 0 1027
 1028 14 1022 166 1027 ?1025 948 1029 23 1030 -1031 1031 1025 948 953 15 1023 43
 0 1032 948 1020 50 1024 2 0 1025 1033 1030 0 +0 0 .01 0 0 1 1 0 0 14 1025 46 10
34 ?1031 1022 1035 23 1024 +948 948 1031 1022 953 13 953 8 0 0 0 0 0 0 26 948 81
 1 1034 689 159 1025 1036 0 1027 1037 1038 14 1031 40 1037 ?1039 1025 1040 23 10
30 -1022 1022 1039 1025 953 15 1035 326 0 967 1025 1041 17 967 0 1035 967 967 0
 1042 963 0 0 +15 1041 97 0 991 1025 0 17 991 0 1041 991 991 0 1043 989 0 0 +17
 1043 0 1044 1043 1043 0 991 989 0 0 -15 1044 129 0 1043 1045 0 14 1045 127 1046
 ?1047 1048 1049 23 1050 +0 0 1047 1048 953 81 1 1046 693 159 1045 1051 0 1052 1
053 1054 14 1047 140 1053 ?1055 1045 1056 23 1057 +0 0 1055 1045 953 14 1048 55
 1052 ?1045 1039 1058 23 1033 +0 0 1045 1039 953 15 1049 128 0 1059 1045 1044 54
 1050 134 0 1045 1060 1057 0 +0 0 .006 0 0 1 .021 .004 1 0 0 51 1060 28 0 1039 1
030 1050 0 -0 0 .01 0 0 -1 .025 -1 0 0 54 1057 147 0 1047 1050 1061 0 +0 0 -.006
 0 0 1 .021 .004 1 0 0 54 1061 365 0 1016 1057 1062 0 +0 0 -.0095 0 0 1 .0155 5e
-4 1 0 0 14 1016 358 1063 ?1064 1013 1065 23 1061 +0 0 1064 1013 953 54 1062 378
 0 1064 1061 951 0 +0 0 -.0085 0 0 -1 .0145 5e-4 -1 0 0 14 1064 371 1066 ?1067 1
016 1068 23 1062 -0 0 1067 1016 953 54 951 391 0 1067 1062 24 0 +0 0 .0095 0 0 1
 .0155 5e-4 1 0 0 14 1067 384 1069 ?950 1064 1070 23 951 +0 0 950 1064 953 81 1
 1069 703 159 1067 1071 0 1066 1072 1073 14 950 397 1072 ?0 1067 1074 23 24 -0 0
 0 1067 953 15 1070 385 0 961 1067 1075 17 961 0 1070 961 961 0 958 955 0 0 -15
 1075 386 0 1042 1067 0 17 1042 0 1075 1042 1042 0 967 963 0 0 -81 1 1072 704 15
9 950 1076 0 1069 0 1077 15 1074 398 0 957 950 1078 17 957 0 1074 957 957 0 954
 27 0 0 -15 1078 399 0 1079 950 0 17 1079 0 1078 1079 1079 0 962 959 0 0 -17 962
 0 1080 962 962 0 1079 959 0 0 +15 1080 332 0 962 1017 0 14 1017 265 1081 ?1013
 1011 960 23 1082 +0 0 1013 1011 953 81 1 1081 699 159 1017 1083 0 1084 1015 108
5 14 1011 257 1084 ?1017 1086 956 23 1087 +0 0 1017 1086 953 15 960 338 0 958 10
17 1080 51 1082 277 0 1017 1087 1088 0 -0 0 .008 0 0 1 .015 1 0 0 50 1087 279 0
 1011 1018 1082 0 +0 0 .008 0 0 1 -1 0 0 51 1088 210 0 1086 1082 1089 0 +0 0 -.0
08 0 0 -1 .0075 -1 0 0 14 1086 200 1090 ?1011 1091 1092 23 1088 +0 0 1011 1091 9
53 50 1089 209 0 1091 1088 1093 0 +0 0 -.008 0 0 -1 -1 0 0 14 1091 192 1094 ?108
6 1055 1095 23 1089 +0 0 1086 1055 953 51 1093 207 0 1055 1089 1033 0 +0 0 -.008
 0 0 -1 .015 -1 0 0 14 1055 187 1096 ?1091 1047 1097 23 1093 -0 0 1091 1047 953
 51 1033 68 0 1048 1093 1024 0 -0 0 .01 0 0 -1 .004 -1 0 0 81 1 1096 695 159 105
5 1098 0 1053 1094 1099 15 1097 308 0 976 1055 1100 17 976 0 1097 976 976 0 1101
 974 0 0 +15 1100 302 0 979 1055 0 17 979 0 1100 979 979 0 1102 977 0 0 +17 1102
 0 1068 1102 1102 0 979 977 0 0 -15 1068 372 0 1102 1064 1103 15 1103 373 0 1104
 1064 0 17 1104 0 1103 1104 1104 0 970 968 0 0 -17 970 0 1095 970 970 0 1104 968
 0 0 +15 1095 320 0 970 1091 1105 15 1105 194 0 1106 1091 0 17 1106 0 1105 1106
 1106 0 1004 996 0 0 -17 1004 0 1092 1004 1004 0 1106 996 0 0 +15 1092 203 0 100
4 1086 1107 15 1107 204 0 1108 1086 0 17 1108 0 1107 1108 1108 0 1001 999 0 0 -1
7 1001 0 1109 1001 1001 0 1108 999 0 0 +15 1109 164 0 1001 1022 0 17 1101 0 1110
 1101 1101 0 976 974 0 0 -15 1110 360 0 1101 1016 0 81 1 1098 684 264 1055 0 109
6 1111 1112 1113 81 1 1053 694 159 1047 1114 0 1046 1096 1115 81 1 1094 696 159
 1091 1111 0 1096 1090 1116 83 3 1099 .250980392156863 .250980392156863 .2509803
92156863 81 1 1111 682 264 1091 0 1094 1117 1098 1118 81 1 1090 697 159 1086 111
7 0 1094 1084 1119 83 3 1116 .250980392156863 .250980392156863 .250980392156863
 81 1 1117 680 264 1086 0 1090 1120 1111 1121 81 1 1084 698 159 1011 1120 0 1090
 1081 1122 83 3 1119 .250980392156863 .250980392156863 .250980392156863 81 1 112
0 678 264 1011 0 1084 1083 1117 1123 83 3 1122 .250980392156863 .250980392156863
 .250980392156863 81 1 1083 676 264 1017 0 1081 1076 1120 1124 82 1 1123 5348407
08 81 1 1076 674 264 950 0 1072 1071 1083 1125 82 1 1124 528483716 81 1 1071 672
 264 1067 0 1069 1126 1076 1127 82 1 1125 543884676 81 1 1126 670 264 1064 0 106
6 1128 1071 1129 82 1 1127 542639492 81 1 1066 702 159 1064 1126 0 1063 1069 113
0 81 1 1128 668 264 1016 0 1063 1131 1126 1132 82 1 1129 541394308 81 1 1063 701
 159 1016 1128 0 1015 1066 1133 81 1 1131 666 264 1048 0 1052 1114 1128 1134 82
 1 1132 540149124 81 1 1052 692 159 1048 1131 0 1135 1046 1136 81 1 1114 664 264
 1047 0 1053 1051 1131 1137 82 1 1134 2071331994 81 1 1051 662 264 1045 0 1046 1
138 1114 1139 82 1 1137 -216529568 81 1 1138 660 264 1031 0 1037 1036 1051 1140
 82 1 1139 -217774752 81 1 1037 690 159 1031 1138 0 1034 1135 1141 81 1 1036 658
 264 1025 0 1034 1142 1138 1143 82 1 1140 2053637508 81 1 1142 656 264 1022 0 10
27 1026 1036 1144 82 1 1143 2051212676 81 1 1027 688 159 1022 1142 0 1021 1034 1
145 81 1 1026 654 264 948 0 1021 1146 1142 1147 82 1 1144 517866882 81 1 1146 65
2 264 1013 0 1015 0 1026 1148 82 1 1147 536413571 81 1 1015 700 159 1013 1146 0
 1081 1063 1149 82 1 1148 532612483 83 3 1149 .250980392156863 .250980392156863
 .250980392156863 83 3 1145 .250980392156863 .250980392156863 .250980392156863 8
1 1 1135 691 159 1039 1112 0 1037 1052 1150 83 3 1141 .250980392156863 .25098039
2156863 .250980392156863 14 1039 25 1135 ?1048 1031 1151 23 1060 -0 0 1048 1031
 953 81 1 1112 686 264 1039 0 1135 1098 0 1152 83 3 1150 .250980392156863 .25098
0392156863 .250980392156863 82 1 1152 2053178720 15 1151 109 0 985 1039 1153 17
 985 0 1151 985 985 0 1059 983 0 0 +15 1153 103 0 988 1039 0 17 988 0 1153 988 9
88 0 1154 986 0 0 +17 1154 0 1155 1154 1154 0 988 986 0 0 -15 1155 142 0 1154 10
47 0 17 1059 0 1049 1059 1059 0 985 983 0 0 -83 3 1136 .250980392156863 .2509803
92156863 .250980392156863 83 3 1133 .250980392156863 .250980392156863 .250980392
156863 83 3 1130 .250980392156863 .250980392156863 .250980392156863 82 1 1121 51
4524546 82 1 1118 508560772 83 3 1115 .250980392156863 .250980392156863 .2509803
92156863 82 1 1113 510526852 51 1018 280 0 1013 0 1087 0 -0 0 .008 0 0 1 .0075 1
 0 0 15 956 344 0 954 1011 1009 83 3 1085 .250980392156863 .250980392156863 .250
980392156863 83 3 1077 .250980392156863 .250980392156863 .250980392156863 83 3 1
073 .250980392156863 .250980392156863 .250980392156863 15 1065 359 0 1156 1016 1
110 17 1156 0 1065 1156 1156 0 973 971 0 0 -17 973 0 1040 973 973 0 1156 971 0 0
 +15 1040 314 0 973 1031 1157 15 1157 115 0 982 1031 0 17 982 0 1157 982 982 0 1
158 980 0 0 +17 1158 0 1056 1158 1158 0 982 980 0 0 -15 1056 141 0 1158 1047 115
5 50 1030 22 0 1031 1024 1060 0 +0 0 -.01 0 0 1 1 0 0 15 1058 58 0 998 1048 1159
 17 998 0 1058 998 998 0 1032 992 0 0 +15 1159 59 0 1160 1048 0 17 1160 0 1159 1
160 1160 0 995 993 0 0 -17 995 0 1029 995 995 0 1160 993 0 0 +15 1029 38 0 995 1
022 1109 17 1032 0 1023 1032 1032 0 998 992 0 0 -83 3 1054 .250980392156863 .250
980392156863 .250980392156863 83 3 1038 .250980392156863 .250980392156863 .25098
0392156863 83 3 1028 .250980392156863 .250980392156863 .250980392156863 19 949 3
0 0 12 0 26 23 S0 74 20 947 3 0 0 1112 1072 20 0 0 0 0 0 0 0 0 0 0 0 0 0 0 0 0 0
 84 14 946 caster-2inch-381 1 10 387 5 7 0 0 0 0 1161 70 11 0 4 T7 0 0 3 20 1 11
62 1162 13 13 29 0 7 0 1163 0 0 1164 0 54 14 238 0 1165 1166 0 0 +0 0 .013 0 0 1
 .003 .002 1 0 0 31 15 205 0 17 1167 0 0 +0 0 .015 0 0 1 1 0 0 .003 19 16 7 0 7
 1164 0 1168 V0 16 17 202 0 ?1169 0 1170 15 0 0 7 17 1169 0 1171 1169 1169 0 117
2 17 0 0 +16 1170 195 0 ?1173 17 1174 1167 0 0 7 17 1173 0 1175 1173 1173 0 1176
 1170 0 0 +16 1174 189 0 ?1177 1170 1178 1179 0 0 7 31 1167 198 0 1170 1179 15 0
 -0 0 .013 0 0 1 1 0 0 .005 31 1179 192 0 1174 1180 1167 0 -0 0 -.013 0 0 -1 -1
 0 0 .005 31 1180 185 0 1178 1181 1179 0 +0 0 -.015 0 0 -1 -1 0 0 .003 16 1178 1
82 0 ?1182 1174 1183 1180 0 0 7 31 1181 114 0 1183 1184 1180 0 -0 0 -.0125 -3542
442045435705e-31 0 -1 -1 0 3542442045435705e-31 .004 16 1183 111 0 ?1185 1178 11
86 1181 0 0 7 31 1184 38 0 1186 1187 1181 0 -0 0 -.0125 -3542442045435705e-31 0
 -1 -1 0 3542442045435705e-31 .005 16 1186 43 0 ?1188 1183 1189 1184 0 0 7 31 11
87 158 0 1189 1190 1184 0 +0 0 .0125 -3542442045435705e-31 0 1 1 0 3542442045435
705e-31 .004 16 1189 127 0 ?1191 1186 1192 1187 0 0 7 31 1190 160 0 1192 0 1187
 0 -0 0 .0125 3542442045435705e-31 0 -1 -1 0 -3542442045435705e-31 .005 16 1192
 125 0 ?1193 1189 0 1190 0 0 7 17 1193 0 1194 1193 1193 0 1195 1192 0 0 +15 1194
 141 0 1193 1196 0 17 1195 0 1197 1195 1195 0 1193 1192 0 0 -15 1197 146 0 1195
 1198 0 14 1198 143 1199 ?1200 1196 1201 13 1202 -0 0 1200 1196 1168 81 1 1199 3
83 159 1198 1203 0 1204 1205 1206 14 1200 147 1205 ?1207 1198 1171 13 1208 +0 0
 1207 1198 1168 14 1196 139 1204 ?1198 1209 1175 13 1210 +0 0 1198 1209 1168 15
 1201 145 0 1191 1198 1197 50 1202 157 0 1198 0 1210 0 +.009 -.02 .0125 -3542442
045435705e-31 0 1 -1 0 -3542442045435705e-31 13 1168 8 0 0 0 0 0 0 16 1163 14 11
63 25 1211 ?1212 0 1213 13 1214 +0 0 1212 0 1168 81 1 1211 378 159 1163 1215 0 0
 1216 1217 14 1212 16 1216 ?1218 1163 1219 13 1220 +0 0 1218 1163 1168 15 1213 1
90 0 1177 1163 1221 51 1214 28 0 1163 1220 1166 0 +0 0 .00164213562373095 0 0 -1
 .005 -1 0 0 50 1220 22 0 1212 1222 1214 0 +0 0 -.015 0 0 -1 -1 0 0 54 1166 225
 0 1207 1214 14 0 +0 0 -.013 0 0 -1 .003 .002 -1 0 0 14 1207 218 1223 ?1165 1200
 1224 13 1166 +0 0 1165 1200 1168 81 1 1223 385 159 1207 1225 0 1205 1226 1227 1
4 1165 231 1226 ?0 1207 1228 13 14 +0 0 0 1207 1168 15 1224 219 0 1229 1207 1230
 17 1229 0 1224 1229 1229 0 1177 1174 0 0 -15 1230 220 0 1231 1207 0 17 1231 0 1
230 1231 1231 0 1182 1178 0 0 -17 1182 0 1219 1182 1182 0 1231 1178 0 0 +15 1219
 183 0 1182 1212 0 17 1177 0 1213 1177 1177 0 1229 1174 0 0 +81 1 1226 386 159 1
165 1232 0 1223 0 1233 15 1228 232 0 1172 1165 1234 17 1172 0 1228 1172 1172 0 1
169 17 0 0 -15 1234 233 0 1176 1165 0 17 1176 0 1234 1176 1176 0 1173 1170 0 0 -
81 1 1232 373 264 1165 0 1226 1225 1235 1236 83 3 1233 .792156862745098 .8196078
43137255 .933333333333333 81 1 1225 371 264 1207 0 1223 1237 1232 1238 81 1 1235
 375 264 1209 0 1239 1232 1240 1241 82 1 1236 495060352 14 1209 128 1239 ?1196 1
218 1242 13 1243 -0 0 1196 1218 1168 81 1 1239 381 159 1209 1235 0 1244 1204 124
5 81 1 1240 377 264 1218 0 1244 1235 0 1246 82 1 1241 489620863 14 1218 57 1244
 ?1209 1212 1247 13 1222 -0 0 1209 1212 1168 81 1 1244 380 159 1218 1240 0 1216
 1239 1248 82 1 1246 485623167 81 1 1216 379 159 1212 1237 0 1211 1244 1249 83 3
 1248 .792156862745098 .819607843137255 .933333333333333 81 1 1237 369 264 1212
 0 1216 1215 1225 1250 83 3 1249 .792156862745098 .819607843137255 .933333333333
333 81 1 1215 367 264 1163 0 1211 1251 1237 1252 82 1 1250 485295488 81 1 1251 3
65 264 1196 0 1204 1253 1215 1254 82 1 1252 485164416 81 1 1204 382 159 1196 125
1 0 1239 1199 1255 81 1 1253 363 264 1200 0 1205 1203 1251 1256 82 1 1254 482608
512 81 1 1205 384 159 1200 1253 0 1199 1223 1257 81 1 1203 360 264 1198 0 1199 0
 1253 1258 82 1 1256 479724928 82 1 1258 482542975 83 3 1257 .792156862745098 .8
19607843137255 .933333333333333 83 3 1255 .792156862745098 .819607843137255 .933
333333333333 15 1247 113 0 1259 1218 1260 50 1222 61 0 1218 1243 1220 0 +.009 -.
02 -.0125 -3542442045435705e-31 0 -1 -1 0 3542442045435705e-31 51 1243 153 0 120
9 1208 1222 0 -0 0 .015 0 0 -1 .004 -1 0 0 50 1208 155 0 1200 1210 1243 0 +0 0 .
015 0 0 1 1 0 0 51 1210 156 0 1196 1202 1208 0 +0 0 -.00164213562373095 0 0 1 .0
05 -1 0 0 17 1259 0 1247 1259 1259 0 1185 1183 0 0 -15 1260 58 0 1188 1218 0 17
 1188 0 1260 1188 1188 0 1261 1186 0 0 +17 1261 0 1221 1261 1261 0 1188 1186 0 0
 -15 1221 37 0 1261 1163 0 17 1185 0 1262 1185 1185 0 1259 1183 0 0 +15 1262 131
 0 1185 1209 0 83 3 1245 .792156862745098 .819607843137255 .933333333333333 15 1
242 130 0 1263 1209 1262 17 1263 0 1242 1263 1263 0 1191 1189 0 0 -17 1191 0 120
1 1191 1191 0 1263 1189 0 0 +82 1 1238 493815168 83 3 1227 .792156862745098 .819
607843137255 .933333333333333 83 3 1217 .792156862745098 .819607843137255 .93333
3333333333 15 1175 196 0 1173 1196 1194 15 1171 203 0 1169 1200 0 83 3 1206 .792
156862745098 .819607843137255 .933333333333333 19 1164 30 0 7 0 16 13 S0 74 20 1
162 3 0 0 1240 1226 10 0 0 0 0 0 0 0 0 0 0 0 0 0 0 0 0 0 84 14 1161 caster-2inch
-474 20 6 1 0 0 2 0 0 0 0 0 0 0 0 0 0 0 0 0 0 0 0 0 0 0 1 0 
